<svg xmlns="http://www.w3.org/2000/svg" xmlns:xlink="http://www.w3.org/1999/xlink" fill="none" version="1.1" width="48" height="48" viewBox="0 0 48 48"><g><g><path d="M35.5672,12.91231L26.5912,35.3523L22.895200000000003,27.9603C22.3619,26.9261,21.5018,26.097,20.4488,25.6019L13.03918,21.8883L35.5672,12.91231ZM38.6472,8.00190779C38.423100000000005,8.00695263,38.2021,8.0547417,37.995999999999995,8.142708L8.07598,20.1107C7.446633,20.3762,7.0277174,20.9818,7.00132116,21.6643C6.9749253,22.346899999999998,7.345816,22.983,7.952777,23.296300000000002L18.864800000000002,28.7523C19.208,28.923,19.4861,29.2011,19.6568,29.5443L25.1128,40.4563C25.4197,41.0842,26.0689,41.471,26.7672,41.4419C27.4841,41.4455,28.1316,41.0139,28.404,40.3507L40.3544,10.43071C40.8449,9.24038,39.9333,7.9434075,38.6472,8.00190779Z" fill="#000000" fill-opacity="1"/></g></g></svg>